<svg width="20" height="20" viewBox="0 0 20 20" fill="none" xmlns="http://www.w3.org/2000/svg">
<path fill="currentColor" d="M1 5C1 4.17235 1.67094 3.5014 2.4986 3.5014C3.32625 3.5014 3.99719 4.17235 3.99719 5C3.99719 5.82765 3.32625 6.4986 2.4986 6.4986C1.67094 6.4986 1 5.82765 1 5Z"/>
<path fill="currentColor" d="M1 10C1 9.17235 1.67094 8.5014 2.4986 8.5014C3.32625 8.5014 3.99719 9.17235 3.99719 10C3.99719 10.8277 3.32625 11.4986 2.4986 11.4986C1.67094 11.4986 1 10.8277 1 10Z"/>
<path fill="currentColor" d="M1 15C1 14.1723 1.67094 13.5014 2.4986 13.5014C3.32625 13.5014 3.99719 14.1723 3.99719 15C3.99719 15.8277 3.32625 16.4986 2.4986 16.4986C1.67094 16.4986 1 15.8277 1 15Z"/>
<path stroke="currentColor" d="M6.25 5H18.25M6.25 10H18.25M6.25 15H18.25" stroke-width="1.5" stroke-linecap="round" stroke-linejoin="round"/>
</svg>