<svg width="20" height="20" viewBox="0 0 20 20" fill="none" xmlns="http://www.w3.org/2000/svg">
<path d="M10.8219 16V14.3459L14.7006 10.2108C15.1727 9.69189 15.5215 9.22162 15.7468 8.8C15.9721 8.36757 16.0848 7.94595 16.0848 7.53514C16.0848 6.91892 15.9131 6.43784 15.5697 6.09189C15.2371 5.73513 14.7758 5.55676 14.1856 5.55676C13.5848 5.55676 13.1073 5.74054 12.7532 6.10811C12.4099 6.46486 12.2382 6.95676 12.2382 7.58378H10.5C10.5322 6.49189 10.8809 5.62162 11.5461 4.97297C12.2114 4.32432 13.0966 4 14.2017 4C15.3069 4 16.1867 4.31351 16.8412 4.94054C17.4957 5.55676 17.823 6.4 17.823 7.47027C17.823 8.07568 17.662 8.68649 17.3401 9.3027C17.0182 9.90811 16.5032 10.5892 15.7951 11.3459L12.8981 14.4108H18V16H10.8219Z" fill="black"/>
<path d="M2 16V7H3.5V10.5H6.49302L6.5 7H8V16H6.5V12H3.5V16H2Z" fill="black"/>
</svg>
