<svg width="20" height="20" viewBox="0 0 20 20" fill="none" xmlns="http://www.w3.org/2000/svg">
<path d="M14.2335 16C13.4736 16 12.8128 15.8595 12.2511 15.5784C11.7004 15.2973 11.2709 14.9027 10.9626 14.3946C10.6542 13.8757 10.5 13.2757 10.5 12.5946H12.2841C12.2841 13.1892 12.4548 13.6541 12.7963 13.9892C13.1487 14.3135 13.6333 14.4757 14.25 14.4757C14.8778 14.4757 15.3623 14.3081 15.7037 13.973C16.0452 13.627 16.2159 13.1676 16.2159 12.5946V11.7514C16.2159 11.1459 16.0396 10.6811 15.6872 10.3568C15.3458 10.0216 14.8667 9.85405 14.25 9.85405H12.8954V8.39459L15.6377 5.54054H11.0121V4H17.6035V5.52432L14.8612 8.36216C15.8304 8.45946 16.5958 8.81081 17.1575 9.41622C17.7192 10.0108 18 10.7838 18 11.7351V12.5946C18 13.2757 17.8403 13.8757 17.5209 14.3946C17.2126 14.9027 16.7775 15.2973 16.2159 15.5784C15.6542 15.8595 14.9934 16 14.2335 16Z" fill="black"/>
<path d="M2 16V7H3.5V10.5H6.49302L6.5 7H8V16H6.5V12H3.5V16H2Z" fill="black"/>
</svg>
