<svg width="20" height="20" viewBox="0 0 20 20" fill="none" xmlns="http://www.w3.org/2000/svg">
<path d="M14.2079 16C13.1404 16 12.2753 15.7405 11.6124 15.2216C10.9494 14.6919 10.5787 13.9838 10.5 13.0973H12.3202C12.3652 13.5297 12.5506 13.8649 12.8764 14.1027C13.2022 14.3405 13.6517 14.4595 14.2247 14.4595C14.8652 14.4595 15.3483 14.2973 15.6742 13.973C16.0112 13.6378 16.1798 13.1676 16.1798 12.5622V11.4108C16.1798 10.8162 16.0169 10.3568 15.691 10.0324C15.3652 9.6973 14.882 9.52973 14.2416 9.52973C13.8371 9.52973 13.4888 9.62162 13.1966 9.80541C12.9045 9.98919 12.691 10.2324 12.5562 10.5351H10.7528L10.8371 4H17.5449V5.58919H12.573L12.5393 9.27027H12.5899C12.691 8.89189 12.9382 8.59459 13.3315 8.37838C13.7247 8.16216 14.2247 8.05405 14.8315 8.05405C15.8202 8.05405 16.5955 8.35135 17.1573 8.94595C17.7191 9.52973 18 10.3514 18 11.4108V12.5622C18 13.6216 17.6629 14.4595 16.9888 15.0757C16.3258 15.6919 15.3989 16 14.2079 16Z" fill="black"/>
<path d="M2 16V7H3.5V10.5H6.49302L6.5 7H8V16H6.5V12H3.5V16H2Z" fill="black"/>
</svg>
