<svg width="20" height="20" viewBox="0 0 20 20" fill="none" xmlns="http://www.w3.org/2000/svg">
<path d="M14.2655 16C13.5114 16 12.8502 15.8378 12.282 15.5135C11.7242 15.1892 11.2851 14.7405 10.9649 14.1676C10.655 13.5838 10.5 12.9027 10.5 12.1243C10.5 11.6162 10.5878 11.0865 10.7634 10.5351C10.9494 9.98378 11.2128 9.39459 11.5537 8.76757L14.157 4H15.97L12.8709 9.51351L12.9483 9.57838C13.1446 9.26486 13.4132 9.02162 13.7541 8.84865C14.095 8.66486 14.4876 8.57297 14.9318 8.57297C15.5413 8.57297 16.0733 8.72432 16.5279 9.02703C16.9928 9.31892 17.3543 9.73514 17.6126 10.2757C17.8709 10.8162 18 11.4432 18 12.1568C18 12.9243 17.8399 13.6 17.5196 14.1838C17.2097 14.7568 16.7758 15.2054 16.218 15.5297C15.6601 15.8432 15.0093 16 14.2655 16ZM14.25 14.4757C14.8698 14.4757 15.3709 14.2703 15.7531 13.8595C16.1457 13.4378 16.3419 12.8811 16.3419 12.1892C16.3419 11.5081 16.1457 10.9568 15.7531 10.5351C15.3709 10.1027 14.8698 9.88649 14.25 9.88649C13.6302 9.88649 13.124 10.1027 12.7314 10.5351C12.3492 10.9568 12.1581 11.5081 12.1581 12.1892C12.1581 12.8811 12.3492 13.4378 12.7314 13.8595C13.124 14.2703 13.6302 14.4757 14.25 14.4757Z" fill="black"/>
<path d="M2 16V7H3.5V10.5H6.49302L6.5 7H8V16H6.5V12H3.5V16H2Z" fill="black"/>
</svg>
