<svg width="16" height="16" viewBox="0 0 16 16" fill="none" xmlns="http://www.w3.org/2000/svg">
<path fill="currentColor" d="M15 11H8V12H15V11Z"/>
<path fill="currentColor" d="M15 4H8V5H15V4Z"/>
<path fill="currentColor" d="M2.13412 14V13.3108L3.75027 11.5878C3.94698 11.3716 4.09227 11.1757 4.18616 11C4.28004 10.8198 4.32698 10.6441 4.32698 10.473C4.32698 10.2162 4.25545 10.0158 4.11239 9.87162C3.9738 9.72297 3.78156 9.64865 3.53568 9.64865C3.28532 9.64865 3.08637 9.72523 2.93884 9.87838C2.79578 10.027 2.72425 10.232 2.72425 10.4932H2C2.01341 10.0383 2.15871 9.67568 2.43589 9.40541C2.71307 9.13514 3.0819 9 3.54238 9C4.00286 9 4.36946 9.13063 4.64217 9.39189C4.91488 9.64865 5.05123 10 5.05123 10.4459C5.05123 10.6982 4.98417 10.9527 4.85005 11.2095C4.71593 11.4617 4.50134 11.7455 4.20628 12.0608L2.9992 13.3378H5.125V14H2.13412Z"/>
<path fill="currentColor" d="M2.00679 7V6.32877H3.32473V2.64384L2 3.63699V2.83562L3.13451 2H4.05842V6.32877H5.125V7H2.00679Z"/>
</svg>