<svg width="20" height="20" viewBox="0 0 20 20" fill="none" xmlns="http://www.w3.org/2000/svg">
<path fill="currentColor" d="M1.00543 7V6.46301H2.05978V3.51507L1 4.30959V3.66849L1.90761 3H2.64674V6.46301H3.5V7H1.00543Z"/>
<path stroke="currentColor" d="M5.75 5H18.25" stroke-width="1.5" stroke-linecap="round" stroke-linejoin="round"/>
<path fill="currentColor" d="M1.1073 12V11.4486L2.40021 10.0703C2.55758 9.8973 2.67382 9.74054 2.74893 9.6C2.82403 9.45586 2.86159 9.31532 2.86159 9.17838C2.86159 8.97297 2.80436 8.81261 2.68991 8.6973C2.57904 8.57838 2.42525 8.51892 2.22854 8.51892C2.02825 8.51892 1.8691 8.58018 1.75107 8.7027C1.63662 8.82162 1.5794 8.98559 1.5794 9.19459H1C1.01073 8.83063 1.12697 8.54054 1.34871 8.32432C1.57046 8.10811 1.86552 8 2.23391 8C2.60229 8 2.89557 8.1045 3.11373 8.31351C3.3319 8.51892 3.44099 8.8 3.44099 9.15676C3.44099 9.35856 3.38734 9.56216 3.28004 9.76757C3.17275 9.96937 3.00107 10.1964 2.76502 10.4486L1.79936 11.4703H3.5V12H1.1073Z"/>
<path stroke="currentColor" d="M5.75 10H18.25" stroke-width="1.5" stroke-linecap="round" stroke-linejoin="round"/>
<path fill="currentColor" d="M2.24449 17C1.99119 17 1.77093 16.9532 1.5837 16.8595C1.40015 16.7658 1.25697 16.6342 1.15418 16.4649C1.05139 16.2919 1 16.0919 1 15.8649H1.59471C1.59471 16.0631 1.65162 16.218 1.76542 16.3297C1.88289 16.4378 2.04442 16.4919 2.25 16.4919C2.45925 16.4919 2.62078 16.436 2.73458 16.3243C2.84839 16.209 2.90529 16.0559 2.90529 15.8649V15.5838C2.90529 15.382 2.84655 15.227 2.72907 15.1189C2.61527 15.0072 2.45558 14.9514 2.25 14.9514H1.79846V14.4649L2.71256 13.5135H1.1707V13H3.36784V13.5081L2.45374 14.4541C2.7768 14.4865 3.03194 14.6036 3.21916 14.8054C3.40639 15.0036 3.5 15.2613 3.5 15.5784V15.8649C3.5 16.0919 3.44677 16.2919 3.34031 16.4649C3.23752 16.6342 3.09251 16.7658 2.90529 16.8595C2.71806 16.9532 2.4978 17 2.24449 17Z"/>
<path stroke="currentColor" d="M5.75 15H18.25" stroke-width="1.5" stroke-linecap="round" stroke-linejoin="round"/>
</svg>